<svg width="126" height="126" viewBox="0 0 126 126" fill="none" xmlns="http://www.w3.org/2000/svg">
<g id="Group 294">
<rect id="Rectangle 226" width="126" height="126" rx="30" fill="url(#paint0_linear_47_51)"/>
<g id="Group 292">
<path id="Vector 4" d="M81.3372 42.882L73.5938 29.0254C92.504 28.3733 98.0466 40.4367 98.4542 46.55H87.0428C82.9674 46.55 82.1523 44.1046 81.3372 42.882Z" fill="white"/>
<path id="Vector 2" d="M49.1404 46.117H27.1328C27.1328 36.2412 37.1363 29.0586 38.3367 29.0585C39.5371 29.0583 40.3374 28.4973 41.5378 30.854C42.7382 33.2107 46.1714 40.1564 49.1404 46.117Z" fill="white"/>
<path id="Vector 3" d="M55.2564 40.8443L48.3281 29.0254H61.3697C64.9561 29.0254 65.4355 29.5538 66.6678 31.4707C70.3357 37.1763 75.2263 46.1424 75.2263 46.1424H62.9998C58.9244 46.1424 58.5168 45.7349 55.2564 40.8443Z" fill="white"/>
<path id="Subtract" fill-rule="evenodd" clip-rule="evenodd" d="M98.8612 53.8867H27.1328V75.5321C27.1328 88.7869 37.878 99.5321 51.1328 99.5321H74.8612C88.1161 99.5321 98.8612 88.7869 98.8612 75.5321V53.8867ZM72.4844 77.7295C75.151 76.1899 75.151 72.3409 72.4844 70.8013L58.8089 62.9058C56.1422 61.3662 52.8089 63.2907 52.8089 66.3699L52.8089 82.161C52.8089 85.2402 56.1422 87.1647 58.8089 85.6251L72.4844 77.7295Z" fill="white"/>
</g>
</g>
<defs>
<linearGradient id="paint0_linear_47_51" x1="63" y1="0" x2="63" y2="126" gradientUnits="userSpaceOnUse">
<stop stop-color="#B136AF"/>
<stop offset="0.489583" stop-color="#EF2F6B"/>
<stop offset="1" stop-color="#ED8531"/>
</linearGradient>
</defs>
</svg>
