<svg width="126" height="126" viewBox="0 0 126 126" fill="none" xmlns="http://www.w3.org/2000/svg">
<g id="Group 293">
<rect id="Rectangle 225" width="126" height="126" rx="30" fill="#F40407"/>
<path id="Subtract" fill-rule="evenodd" clip-rule="evenodd" d="M34.2925 63.2317C30.3941 55.8455 33.2216 46.6976 40.6078 42.7993L71.012 26.7524C78.3982 22.8541 87.5461 25.6816 91.4444 33.0678C95.3427 40.454 92.5152 49.6019 85.1291 53.5002L79.6846 56.3737C84.7984 56.6685 89.6369 59.555 92.2022 64.4154C96.1005 71.8016 93.2731 80.9495 85.8869 84.8478L55.4827 100.895C48.0965 104.793 38.9486 101.966 35.0503 94.5793C31.152 87.1931 33.9794 78.0452 41.3656 74.1469L46.8101 71.2734C41.6962 70.9786 36.8577 68.0921 34.2925 63.2317ZM72.7496 64.434C74.0829 63.6642 74.0829 61.7397 72.7496 60.9699L56.5096 51.5938C55.1763 50.824 53.5096 51.7862 53.5096 53.3258L53.5096 72.0781C53.5096 73.6177 55.1763 74.58 56.5096 73.8102L72.7496 64.434Z" fill="white"/>
</g>
</svg>
